<?xml version="1.0" encoding="iso-8859-1"?>
<!-- Generator: Adobe Illustrator 19.0.0, SVG Export Plug-In . SVG Version: 6.00 Build 0)  -->
<svg version="1.1" id="Capa_1" xmlns="http://www.w3.org/2000/svg" xmlns:xlink="http://www.w3.org/1999/xlink" x="0px" y="0px"
	 viewBox="0 0 480.002 480.002" style="enable-background:new 0 0 480.002 480.002;" xml:space="preserve">
<g>
	<g>
		<path d="M468.716,294.565c-3.933-12.726-15.378-21.654-28.679-22.371V68.466c-0.012-15.673-5.45-30.859-15.392-42.976
			l-0.608-0.792c-23.739-28.872-66.389-33.033-95.262-9.294c-1.695,1.394-3.322,2.87-4.874,4.422
			c-11.373,11.304-18.325,26.304-19.6,42.288c-0.162,0.617-0.251,1.25-0.264,1.888h-16c-13.255,0-24,10.745-24,24s10.745,24,24,24
			h48c13.255,0,24-10.745,24-24s-10.745-24-24-24h-15.824c0.837-12.406,6.153-24.086,14.96-32.864
			c20.184-20.181,52.906-20.178,73.087,0.006c1.183,1.183,2.307,2.422,3.369,3.714l0.648,0.8c7.597,9.243,11.753,20.835,11.76,32.8
			v203.544h-368v-32h56v8c0,4.418,3.582,8,8,8s8-3.582,8-8v-16c0-4.418-3.582-8-8-8h-48v-24c0-4.418-3.582-8-8-8h-32
			c-4.418,0-8,3.582-8,8v32c0,4.418,3.582,8,8,8h8v32.192c-7.781,0.453-15.133,3.717-20.688,9.184
			c-12.495,12.273-12.675,32.351-0.402,44.846c3.72,3.787,8.331,6.58,13.41,8.122c3.43,81.322,70.286,145.523,151.68,145.656h112
			c81.394-0.133,148.25-64.334,151.68-145.656C464.501,329.16,473.903,311.349,468.716,294.565z M336.038,80.002
			c4.418,0,8,3.582,8,8s-3.582,8-8,8h-48c-4.418,0-8-3.582-8-8s3.582-8,8-8H336.038z M40.038,208.002h16v16h-16V208.002z
			 M296.038,464.002h-112c-71.968-0.09-131.443-56.162-135.768-128h383.536C427.481,407.84,368.006,463.912,296.038,464.002z
			 M438.102,320.002H41.973c-8.837,0-16-7.163-16-16s7.163-16,16-16h396.128c8.837,0,16,7.163,16,16
			S446.938,320.002,438.102,320.002z"/>
	</g>
</g>
<g>
	<g>
		<path d="M376.038,352.002c-4.418,0-8,3.582-8,8c-0.044,39.746-32.254,71.956-72,72c-4.418,0-8,3.582-8,8s3.582,8,8,8
			c48.577-0.057,87.943-39.423,88-88C384.038,355.584,380.456,352.002,376.038,352.002z"/>
	</g>
</g>
<g>
	<g>
		<path d="M280.038,128.002c-4.418,0-8,3.582-8,8v64c0,4.418,3.582,8,8,8s8-3.582,8-8v-64
			C288.038,131.584,284.456,128.002,280.038,128.002z"/>
	</g>
</g>
<g>
	<g>
		<path d="M312.038,128.002c-4.418,0-8,3.582-8,8v64c0,4.418,3.582,8,8,8s8-3.582,8-8v-64
			C320.038,131.584,316.456,128.002,312.038,128.002z"/>
	</g>
</g>
<g>
	<g>
		<path d="M344.038,128.002c-4.418,0-8,3.582-8,8v64c0,4.418,3.582,8,8,8s8-3.582,8-8v-64
			C352.038,131.584,348.456,128.002,344.038,128.002z"/>
	</g>
</g>
<g>
</g>
<g>
</g>
<g>
</g>
<g>
</g>
<g>
</g>
<g>
</g>
<g>
</g>
<g>
</g>
<g>
</g>
<g>
</g>
<g>
</g>
<g>
</g>
<g>
</g>
<g>
</g>
<g>
</g>
</svg>
