<svg fill="#d9cdc0" id="Layer_1" enable-background="new 0 0 512 512" height="512" viewBox="0 0 512 512" width="512" xmlns="http://www.w3.org/2000/svg"><path clip-rule="evenodd" d="m421.117 87.785h74.883v218.475h-74.883zm19.883 379.635c0 42.754-154.832 42.754-154.832 0 0-42.753 34.665-77.413 77.419-77.413 42.754-.001 77.413 34.659 77.413 77.413zm-215.168 0c0 42.754-154.832 42.754-154.832 0 0-42.753 34.665-77.413 77.419-77.413s77.413 34.659 77.413 77.413zm101.974-133.814c0 19.762 16.019 35.781 35.781 35.781s35.78-16.019 35.78-35.781c0-19.756-16.019-35.775-35.78-35.775-19.762 0-35.781 16.019-35.781 35.775zm-215.168 0c0 19.762 16.019 35.781 35.781 35.781s35.781-16.019 35.781-35.781c0-19.756-16.019-35.775-35.781-35.775s-35.781 16.019-35.781 35.775zm107.584-46.088c0 19.762 16.019 35.781 35.781 35.781s35.781-16.019 35.781-35.781c0-19.756-16.019-35.775-35.781-35.775s-35.781 16.019-35.781 35.775zm53.138 165.147c4.874-30.019 24.37-55.135 50.939-67.804-13.039-24.365-38.73-40.943-68.297-40.943-29.566 0-55.26 16.578-68.3 40.942 26.569 12.669 46.064 37.785 50.937 67.804 11.399.971 23.322.972 34.721.001zm-170.982-292.567 298.238-114.53-10.1 17.788c-1.903 3.352-.727 7.613 2.625 9.515 3.352 1.903 7.613.727 9.515-2.625l19.713-34.72c2.265-3.99.115-9.009-4.257-10.187l-37.509-12.472c-3.654-1.208-7.597.775-8.805 4.43-1.208 3.654.775 7.597 4.43 8.805l19.405 6.452-298.232 114.529c-3.594 1.374-5.394 5.402-4.02 8.996 1.375 3.594 5.403 5.393 8.997 4.019zm-86.378 62.582h74.882v83.579h-74.882zm135.039-44.965h74.882v70.148c-17.924 13.616-24.483 37.656-16.046 58.397h-19.863c-8.453-12.826-22.677-21.514-38.973-22.36zm135.039-44.965h74.883v151.15c-16.294.847-30.516 9.535-38.968 22.36h-19.864c8.439-20.744 1.877-44.786-16.051-58.401z" fill-rule="evenodd"/></svg>