<?xml version="1.0" encoding="UTF-8"?><svg id="Layer_2" xmlns="http://www.w3.org/2000/svg" viewBox="0 0 40 40"><defs><style>.cls-1{fill:#d9cdc0;}.cls-1,.cls-2{stroke-width:0px;}.cls-2{fill:#fff;}</style></defs><g id="Layer_1-2"><rect class="cls-2" x="12.81" y="7.81" width="15.55" height="27.34"/><path class="cls-1" d="M20,0C8.97,0,0,8.97,0,20s8.97,20,20,20,20-8.97,20-20S31.03,0,20,0ZM24.51,27.16c.65.65.65,1.7,0,2.36-.33.33-.75.49-1.18.49s-.85-.16-1.18-.49l-8.33-8.33c-.65-.65-.65-1.71,0-2.36l8.33-8.33c.65-.65,1.7-.65,2.36,0,.65.65.65,1.7,0,2.36l-7.15,7.15,7.15,7.16Z"/></g></svg>