<svg id="Layer_1" fill="#B5A191" enable-background="new 0 0 90 90" height="512" viewBox="0 0 90 90" width="512" xmlns="http://www.w3.org/2000/svg"><g><path d="m68.691 58.509-2.642 1.422c-.729.394-1.002 1.303-.61 2.032.271.503.788.789 1.322.789.24 0 .483-.058.709-.179l2.642-1.422c.729-.394 1.002-1.303.61-2.032-.393-.729-1.302-1.002-2.031-.61z"/><path d="m53.621 66.624-4.143 2.23c-.729.393-1.002 1.302-.61 2.031.271.503.788.789 1.322.789.24 0 .483-.058.709-.18l4.143-2.23c.729-.393 1.002-1.302.61-2.031s-1.302-1.004-2.031-.609z"/><path d="m61.906 62.162-4.143 2.23c-.729.393-1.002 1.302-.61 2.031.271.503.788.789 1.322.789.24 0 .483-.058.709-.18l4.143-2.23c.729-.393 1.002-1.302.61-2.031s-1.301-1.003-2.031-.609z"/><path d="m45.335 71.084-1.931 1.04-1.931-1.04c-.729-.391-1.639-.118-2.032.61-.393.729-.12 1.639.61 2.032l2.642 1.422c.222.119.466.179.711.179s.489-.06.711-.179l2.642-1.422c.729-.394 1.002-1.303.61-2.032-.393-.729-1.304-1.002-2.032-.61z"/><path d="m29.046 64.394-4.143-2.231c-.729-.393-1.639-.12-2.032.609s-.12 1.639.609 2.031l4.143 2.231c.227.122.47.18.71.18.534 0 1.051-.285 1.322-.789.393-.73.12-1.639-.609-2.031z"/><path d="m37.331 68.854-4.143-2.23c-.729-.395-1.639-.119-2.032.609-.393.729-.12 1.639.61 2.031l4.143 2.23c.226.122.47.18.709.18.534 0 1.051-.286 1.322-.789.393-.729.121-1.638-.609-2.031z"/><path d="m20.759 59.931-2.642-1.422c-.729-.391-1.639-.118-2.032.61-.393.729-.12 1.639.61 2.032l2.642 1.422c.226.121.47.179.709.179.534 0 1.051-.286 1.322-.789.394-.73.121-1.639-.609-2.032z"/><path d="m68.691 48.51-25.287 13.614-25.286-13.614c-.729-.395-1.639-.119-2.032.609-.393.729-.12 1.639.61 2.031l25.998 13.997c.222.12.466.18.711.18s.489-.06.711-.18l25.997-13.997c.729-.393 1.002-1.302.61-2.031-.394-.729-1.303-1.005-2.032-.609z"/><path d="m16.696 41.15 25.998 13.997c.222.12.466.18.711.18s.489-.06.711-.18l25.997-13.997c.493-.266.797-.784.789-1.344-.009-.56-.328-1.068-.829-1.319l-25.998-12.996c-.423-.211-.919-.211-1.342 0l-25.997 12.997c-.501.25-.82.759-.829 1.319s.296 1.078.789 1.343zm26.708-12.64 22.742 11.369-22.742 12.245-22.741-12.245z"/><path d="m58.5 24h1.5v1.5c0 .829.671 1.5 1.5 1.5s1.5-.671 1.5-1.5v-1.5h1.5c.829 0 1.5-.671 1.5-1.5s-.671-1.5-1.5-1.5h-1.5v-1.5c0-.829-.671-1.5-1.5-1.5s-1.5.671-1.5 1.5v1.5h-1.5c-.829 0-1.5.671-1.5 1.5s.671 1.5 1.5 1.5z"/></g></svg>