<?xml version="1.0" encoding="iso-8859-1"?>

<!-- Generator: Adobe Illustrator 19.0.0, SVG Export Plug-In . SVG Version: 6.00 Build 0)  -->
<svg version="1.1" id="Capa_1" xmlns="http://www.w3.org/2000/svg" xmlns:xlink="http://www.w3.org/1999/xlink" x="0px" y="0px"
	 viewBox="0 0 512 512" style="enable-background:new 0 0 512 512;" xml:space="preserve" fill="#d9cdc0" >
<g>
	<g>
		<path d="M511.191,10.984C509.405,4.693,503.866,0,497,0h-60c-8.291,0-15,6.709-15,15s6.709,15,15,15h35.081l-71.633,80.878
			C303.871,220.126,161.747,277.87,16.288,265.229c-7.983-0.835-15.513,5.391-16.23,13.652c-0.718,8.247,5.391,15.513,13.652,16.23
			c14.033,1.216,25.874,1.816,39.864,1.816c140.171,0,275.815-60.396,369.346-166.187L482,64.06V75c0,8.291,6.709,15,15,15
			c8.291,0,15-6.709,15-15V29.802L511.191,10.984z"/>
	</g>
</g>
<g>
	<g>
		<path d="M497,482h-16V144.76c0-6.299-3.94-11.924-9.858-14.092c-5.903-2.124-12.539-0.396-16.611,4.424l-9.214,10.942
			c-15.234,18.076-31.831,35.259-49.351,51.035c-3.164,2.842-4.966,6.899-4.966,11.147V482h-30V255.019
			c0-5.537-3.062-10.635-7.939-13.242c-4.878-2.578-10.84-2.314-15.425,0.791c-18.618,12.51-38.247,23.936-58.345,33.984
			c-5.083,2.534-8.291,7.734-8.291,13.418V482h-30V315.546c0-4.878-2.373-9.448-6.357-12.261c-3.97-2.798-9.097-3.472-13.682-1.86
			c-19.028,6.782-38.657,12.539-58.345,17.08c-6.797,1.582-11.616,7.632-11.616,14.619V482h-30V343.466
			c0-4.277-1.831-8.35-5.01-11.191c-3.208-2.842-7.559-4.292-11.689-3.706c-19.248,2.197-38.862,3.325-58.315,3.354
			c-8.276,0.015-14.985,6.724-14.985,15V482H15c-8.291,0-15,6.709-15,15c0,8.291,6.709,15,15,15h482c8.291,0,15-6.709,15-15
			C512,488.709,505.291,482,497,482z"/>
	</g>
</g>
<g>
</g>
<g>
</g>
<g>
</g>
<g>
</g>
<g>
</g>
<g>
</g>
<g>
</g>
<g>
</g>
<g>
</g>
<g>
</g>
<g>
</g>
<g>
</g>
<g>
</g>
<g>
</g>
<g>
</g>
</svg>
