<svg fill="#d9cdc0" id="Layer_1" enable-background="new 0 0 512 512" viewBox="0 0 512 512" xmlns="http://www.w3.org/2000/svg"><path clip-rule="evenodd" d="m106.22 423.79-38.13-36.57c-16.58-15.9-25.82-34.81-28.15-57.66l-15.05-146.66c-2.21-21.49 22.42-34.95 31.69-3.34l18.94 64.69c-2.95.96-5.81 2.41-8.5 4.42-17.38 12.76-15.79 36.4-2.18 51.39l46.49 51.22c2.81 3.09 7.6 3.32 10.66.51l1.59-1.45c3.09-2.78 3.32-7.57.54-10.63h-.03l-46.49-51.25c-16.07-17.69 2.83-38.86 20.15-22.68 48.1 44.84 94.22 75.06 95.39 148.48v31.63h-77.84l-.03-1.3c-.12-8.16-3.16-15.13-9.05-20.8zm99.95 39.31h-103.44c-2.81 0-5.1 2.3-5.1 5.1v38.69c0 2.81 2.3 5.1 5.1 5.1h103.44c2.81 0 5.1-2.3 5.1-5.1v-38.69c0-2.8-2.3-5.1-5.1-5.1zm249.28-283.55-18.94 64.69c2.92.96 5.78 2.41 8.5 4.42 17.35 12.76 15.79 36.4 2.18 51.39l-46.52 51.22c-2.78 3.09-7.57 3.32-10.66.51l-1.59-1.45c-3.06-2.78-3.29-7.57-.51-10.63l46.52-51.25c16.04-17.69-2.83-38.86-20.18-22.68-48.1 44.84-94.22 75.06-95.39 148.48v31.63h77.87l.03-1.3c.11-8.16 3.15-15.14 9.04-20.81l38.1-36.57c16.58-15.9 25.82-34.81 28.18-57.66l15.02-146.66c2.22-21.47-22.41-34.93-31.65-3.33zm-46.18 283.55h-103.44c-2.81 0-5.1 2.3-5.1 5.1v38.69c0 2.81 2.3 5.1 5.1 5.1h103.44c2.81 0 5.1-2.3 5.1-5.1v-38.69c0-2.8-2.29-5.1-5.1-5.1zm-192.36-429.11c.99-.08 1.98-.14 3-.14h72.2c.99 0 2.01.06 3 .14l5.75-13.32c2.69-6.21 1.08-13.24-3.8-17.63-3.91-3.52-9.5-4-13.92-1.16l-4.24 2.72c-3.85 2.47-8.53 2.47-12.42 0l-4.28-2.75c-3.86-2.47-8.53-2.47-12.42 0l-4.28 2.75c-3.88 2.47-8.53 2.47-12.42 0l-4.22-2.72c-4.45-2.83-10.01-2.35-13.92 1.16-4.88 4.39-6.49 11.42-3.8 17.63zm39.09 270.85c-65.57 0-118.71-50.23-118.71-112.22 0-41.87 24.63-81.75 60.6-108.65 5.47 5.95 13.32 9.72 22.03 9.72h72.2c8.67 0 16.53-3.77 22-9.72 35.97 26.9 60.63 66.78 60.63 108.65-.01 61.99-53.18 112.22-118.75 112.22zm25.6-109.27c-.91-1.36-2.01-2.69-3.34-3.97-4.76-4.65-10.89-6.09-17.38-7.63-5.07-1.19-10.43-2.47-13.24-5.33-.54-.57-.94-1.28-1.22-2.07-.4-1.16-.45-2.47-.17-3.77.28-1.22.85-2.35 1.79-3.26.74-.71 1.7-1.33 2.95-1.73.45-.17.91-.28 1.33-.4 3.26-.82 6.94-.71 10.06.43 2.47.91 4.51 2.58 5.33 5.07.11.26.17.51.23.71 1.08 4.42 5.56 7.11 9.98 6.04 4.42-1.08 7.12-5.56 6.04-9.98-.2-.74-.4-1.42-.62-2.07-2.64-7.77-8.42-12.7-15.28-15.25-1.22-.45-2.49-.82-3.77-1.11v-6.63c0-4.56-3.71-8.25-8.28-8.25-4.56 0-8.25 3.69-8.25 8.25v6.94c-.71.2-1.39.4-2.04.62-3.69 1.25-6.72 3.17-9.16 5.53-3.37 3.29-5.5 7.37-6.43 11.59-.91 4.17-.65 8.56.68 12.56 1.05 3.03 2.72 5.87 5.05 8.25 6.18 6.35 13.97 8.16 21.29 9.89 4.2.99 8.16 1.96 9.64 3.37.37.37.71.77.99 1.22.77 1.16 1.02 2.44.85 3.63-.17 1.36-.85 2.66-1.9 3.74-.34.37-.77.71-1.28 1.05-.6.37-1.22.71-1.84.96-2.89 1.22-6.41 1.5-9.84.57-3.4-.91-6.69-3.09-9.16-6.83-.71-1.11-1.33-2.3-1.9-3.6-1.73-4.2-6.55-6.21-10.77-4.45-4.2 1.76-6.18 6.58-4.45 10.77.96 2.32 2.1 4.42 3.32 6.32 4.48 6.83 10.54 11.08 16.95 13.21v7.4c0 4.56 3.69 8.25 8.25 8.25s8.28-3.69 8.28-8.25v-6.41c1.96-.43 3.86-.99 5.64-1.73 1.64-.68 3.17-1.5 4.56-2.41 1.45-.96 2.81-2.1 4.05-3.37 3.49-3.57 5.75-8.16 6.41-13.01.67-5-.32-10.18-3.35-14.86zm-61.68-118.4h72.2c7.37 0 13.38-6.04 13.38-13.41s-6.01-13.38-13.38-13.38h-72.2c-7.37 0-13.41 6.01-13.41 13.38s6.04 13.41 13.41 13.41zm157.4-29.37h18.96v73.11c0 2.78 2.27 5.07 5.07 5.07h31.65c2.81 0 5.1-2.3 5.1-5.07v-73.11h18.94c1.64 0 3.06-.94 3.69-2.44.62-1.53.28-3.17-.88-4.34l-39.87-39.85c-1.53-1.56-4.05-1.56-5.61 0l-39.85 39.85c-1.16 1.16-1.5 2.81-.88 4.34.65 1.5 2.04 2.44 3.68 2.44zm-322.35 0h18.96v73.11c0 2.78 2.3 5.07 5.07 5.07h31.66c2.78 0 5.07-2.3 5.07-5.07v-73.11h18.96c1.62 0 3.03-.94 3.66-2.44.62-1.53.31-3.17-.85-4.34l-39.84-39.85c-1.56-1.56-4.08-1.56-5.64 0l-39.86 39.85c-1.16 1.16-1.47 2.81-.85 4.34.62 1.5 2.01 2.44 3.66 2.44z" fill-rule="evenodd"/></svg>