<?xml version="1.0" encoding="iso-8859-1"?>
<!-- Generator: Adobe Illustrator 19.0.0, SVG Export Plug-In . SVG Version: 6.00 Build 0)  -->
<svg version="1.1" id="Capa_1" xmlns="http://www.w3.org/2000/svg" xmlns:xlink="http://www.w3.org/1999/xlink" x="0px" y="0px"
	 viewBox="0 0 410.002 410.002" style="enable-background:new 0 0 410.002 410.002;" xml:space="preserve">
<g>
	<g>
		<path d="M389.07,208.601h-0.78V61.556c0-33.83-27.555-61.35-61.423-61.35l-51.732-0.005c-1.358,0-2.66,0.54-3.62,1.5
			c-0.96,0.96-1.5,2.26-1.5,3.62v17.454c-25.011,2.572-44.585,23.765-44.585,49.446v3.625c0,2.83,2.292,5.12,5.12,5.12h89.172
			c2.828,0,5.12-2.29,5.12-5.12v-3.625c0-25.681-19.575-46.875-44.588-49.446V10.441l46.612,0.005
			c28.223,0,51.182,22.93,51.182,51.11v147.045h-68.887v-13.71c0-2.83-2.292-5.12-5.12-5.12c-2.828,0-5.12,2.29-5.12,5.12v13.71
			h-18.668v-13.71c0-2.83-2.292-5.12-5.12-5.12c-2.828,0-5.12,2.29-5.12,5.12v13.71H251.35v-13.71c0-2.83-2.292-5.12-5.12-5.12
			s-5.12,2.29-5.12,5.12v13.71H20.933C9.39,208.601,0,217.991,0,229.531v1.285c0,11.529,9.372,20.909,20.9,20.927l20.657,82.818
			c2.639,15.985,12.961,28.911,26.84,35.325l-19.432,32.145c-1.462,2.42-0.685,5.57,1.733,7.03c0.83,0.5,1.742,0.74,2.645,0.74
			c1.733,0,3.425-0.88,4.388-2.47l20.643-34.148c3.247,0.694,6.599,1.098,10.044,1.098h232.125c3.724,0,7.339-0.468,10.828-1.274
			l20.747,34.324c0.963,1.59,2.655,2.47,4.388,2.47c0.903,0,1.815-0.24,2.643-0.74c2.42-1.46,3.198-4.61,1.735-7.03l-19.619-32.458
			c13.518-6.494,23.518-19.169,26.054-34.607l20.739-83.22h1.013c11.542,0,20.932-9.39,20.932-20.93v-1.285
			C410.002,217.991,400.613,208.601,389.07,208.601z M314.575,70.726h-78.877c0.79-21.075,18.177-37.975,39.438-37.975
			C296.398,32.751,313.785,49.651,314.575,70.726z M357.298,332.891c-2.98,18.05-18.438,31.15-36.755,31.15H88.418
			c-18.318,0-33.775-13.1-36.84-31.555l-20.123-80.74h346.05L357.298,332.891z M399.763,230.816L399.763,230.816
			c0,5.895-4.798,10.69-10.693,10.69H20.933c-5.895,0-10.693-4.795-10.693-10.69v-1.285c0-5.895,4.797-10.69,10.693-10.69H389.07
			c5.895,0,10.693,4.795,10.693,10.69V230.816z"/>
	</g>
</g>
<g>
	<g>
		<path d="M304.043,99.401c-2.828,0-5.12,2.29-5.12,5.12v16.51c0,2.83,2.292,5.12,5.12,5.12c2.828,0,5.12-2.29,5.12-5.12v-16.51
			C309.163,101.691,306.87,99.401,304.043,99.401z"/>
	</g>
</g>
<g>
	<g>
		<path d="M304.043,144.586c-2.828,0-5.12,2.29-5.12,5.12v16.51c0,2.83,2.292,5.12,5.12,5.12c2.828,0,5.12-2.29,5.12-5.12v-16.51
			C309.163,146.876,306.87,144.586,304.043,144.586z"/>
	</g>
</g>
<g>
	<g>
		<path d="M275.135,99.401c-2.828,0-5.12,2.29-5.12,5.12v16.51c0,2.83,2.293,5.12,5.12,5.12c2.828,0,5.12-2.29,5.12-5.12v-16.51
			C280.255,101.691,277.963,99.401,275.135,99.401z"/>
	</g>
</g>
<g>
	<g>
		<path d="M275.135,144.586c-2.828,0-5.12,2.29-5.12,5.12v16.51c0,2.83,2.292,5.12,5.12,5.12s5.12-2.29,5.12-5.12v-16.51
			C280.255,146.876,277.963,144.586,275.135,144.586z"/>
	</g>
</g>
<g>
	<g>
		<path d="M246.23,99.401c-2.828,0-5.12,2.29-5.12,5.12v16.51c0,2.83,2.292,5.12,5.12,5.12s5.12-2.29,5.12-5.12v-16.51
			C251.35,101.691,249.058,99.401,246.23,99.401z"/>
	</g>
</g>
<g>
	<g>
		<path d="M246.23,144.586c-2.828,0-5.12,2.29-5.12,5.12v16.51c0,2.83,2.292,5.12,5.12,5.12s5.12-2.29,5.12-5.12v-16.51
			C251.35,146.876,249.058,144.586,246.23,144.586z"/>
	</g>
</g>
<g>
</g>
<g>
</g>
<g>
</g>
<g>
</g>
<g>
</g>
<g>
</g>
<g>
</g>
<g>
</g>
<g>
</g>
<g>
</g>
<g>
</g>
<g>
</g>
<g>
</g>
<g>
</g>
<g>
</g>
</svg>
