<svg fill="#d9cdc0" id="Layer_1" enable-background="new 0 0 512 512" viewBox="0 0 512 512" xmlns="http://www.w3.org/2000/svg"><path clip-rule="evenodd" d="m43.227 324.011h47.81c5.508 0 10 4.492 10 10v82.032c0 5.508-4.492 10-10 10h-47.81c-5.508 0-10-4.492-10-10v-82.032c0-5.508 4.492-10 10-10zm115.912 171.989h193.722c8.127 0 14.776-6.649 14.776-14.776v-129.938c0-8.127-6.649-14.776-14.776-14.776h-193.722c-8.127 0-14.776 6.649-14.776 14.776v129.939c.001 8.126 6.65 14.775 14.776 14.775zm127.334-135.4c2.571-3.573 7.552-4.384 11.125-1.812 3.573 2.571 4.384 7.552 1.812 11.125l-73.82 102.754c-2.571 3.573-7.552 4.384-11.125 1.812-3.573-2.571-4.384-7.552-1.812-11.125zm-1.145 65.256c14.097 0 25.526 11.43 25.526 25.527s-11.43 25.526-25.526 25.526c-14.097 0-25.526-11.43-25.526-25.526 0-14.098 11.429-25.527 25.526-25.527zm0 16c5.263 0 9.527 4.264 9.527 9.527s-4.263 9.526-9.527 9.526-9.526-4.263-9.526-9.526c0-5.264 4.263-9.527 9.526-9.527zm-58.655-86.254c14.097 0 25.526 11.43 25.526 25.526s-11.43 25.526-25.526 25.526c-14.097 0-25.527-11.43-25.527-25.526 0-14.097 11.43-25.526 25.527-25.526zm0 15.999c5.263 0 9.526 4.264 9.526 9.527s-4.264 9.526-9.526 9.526c-5.263 0-9.527-4.263-9.527-9.526s4.263-9.527 9.527-9.527zm-159.54-173.338c14.361 0 26.003 11.642 26.003 26.003s-11.642 26.003-26.003 26.003-26.003-11.642-26.003-26.003 11.642-26.003 26.003-26.003zm-45.227 107.9h90.453c3.235 0 5.602-2.978 4.871-6.129-5.284-22.784-25.707-39.765-50.098-39.765s-44.815 16.981-50.098 39.765c-.731 3.151 1.637 6.129 4.872 6.129zm171.139-222.305c14.361 0 26.003 11.642 26.003 26.002 0 14.361-11.642 26.003-26.003 26.003s-26.002-11.642-26.002-26.003c-.001-14.36 11.641-26.002 26.002-26.002zm-45.227 107.9h90.454c3.235 0 5.602-2.978 4.871-6.129-5.284-22.784-25.707-39.765-50.098-39.765s-44.815 16.981-50.098 39.765c-.731 3.151 1.636 6.129 4.871 6.129zm171.14-61.654c14.361 0 26.003 11.642 26.003 26.003s-11.642 26.003-26.003 26.003-26.002-11.642-26.002-26.003c-.001-14.361 11.641-26.003 26.002-26.003zm-45.227 107.9h90.453c3.235 0 5.602-2.978 4.871-6.129-5.284-22.784-25.707-39.765-50.098-39.765s-44.815 16.981-50.098 39.766c-.731 3.15 1.637 6.128 4.872 6.128zm171.137-222.004c14.361 0 26.002 11.642 26.002 26.003s-11.642 26.002-26.002 26.002c-14.361 0-26.003-11.642-26.003-26.002.001-14.361 11.642-26.003 26.003-26.003zm-45.227 107.9h90.453c3.235 0 5.602-2.978 4.871-6.129-5.284-22.784-25.707-39.765-50.098-39.765s-44.815 16.981-50.098 39.766c-.73 3.15 1.638 6.128 4.872 6.128zm21.322 17.848h47.811c5.508 0 10 4.492 10 10v264.295c0 5.508-4.492 10-10 10h-47.811c-5.508 0-10-4.492-10-10v-264.296c0-5.507 4.492-9.999 10-9.999zm-125.911 114.103h47.811c5.508 0 10.001 4.493 10 10.001v54.657h-.001-67.809v-54.657c-.002-5.507 4.491-10.001 9.999-10.001zm-125.913-46.245h47.81c5.508 0 10 4.492 10 10v100.904h-67.81v-100.904c.001-5.508 4.493-10 10-10z" fill-rule="evenodd"/></svg>